<?xml version="1.0" encoding="utf-8"?>
<!-- Generator: Adobe Illustrator 17.0.0, SVG Export Plug-In . SVG Version: 6.00 Build 0)  -->
<!DOCTYPE svg PUBLIC "-//W3C//DTD SVG 1.1//EN" "http://www.w3.org/Graphics/SVG/1.1/DTD/svg11.dtd">
<svg version="1.1" id="Layer_1" xmlns="http://www.w3.org/2000/svg" xmlns:xlink="http://www.w3.org/1999/xlink" x="0px" y="0px"
	 width="615.305px" height="605.117px" viewBox="0 0 615.305 605.117" enable-background="new 0 0 615.305 605.117"
	 xml:space="preserve">
<g>
	<linearGradient id="SVGID_1_" gradientUnits="userSpaceOnUse" x1="587.9623" y1="528.139" x2="37.1303" y2="-22.693">
		<stop  offset="0" style="stop-color:#4FA0CA;stop-opacity:0"/>
		<stop  offset="0.2558" style="stop-color:#356C88;stop-opacity:0.2558"/>
		<stop  offset="0.5115" style="stop-color:#1E3E4E;stop-opacity:0.5115"/>
		<stop  offset="0.7289" style="stop-color:#0E1C24;stop-opacity:0.7289"/>
		<stop  offset="0.8988" style="stop-color:#04080A;stop-opacity:0.8988"/>
		<stop  offset="1" style="stop-color:#000000"/>
	</linearGradient>
	<path opacity="0.2" fill="url(#SVGID_1_)" d="M615.305,249.047c-4.6,101.98-47.29,194.05-114.18,262.3
		c-33.09,33.76-72.1,61.69-115.36,82.12c-8.91,4.2-18,8.09-27.26,11.65l-143.78-143.78l13.5-73.66l59.79-94.01l102.71-188.86
		l38.72-41.62L615.305,249.047z"/>
	<g>
		<path fill="#F2F2F2" d="M214.725,0C270.506,31.726,429.45,63.116,429.45,63.116c0,314.279-214.725,398.217-214.725,398.217
			S0,377.395,0,63.116C0,63.116,158.944,31.726,214.725,0z"/>
	</g>
	<g>
		<path fill="#1A1A1A" d="M276.262,111.198H153.188c-2.614,0-4.734-2.119-4.734-4.734c0-2.614,2.119-4.734,4.734-4.734h123.074
			c2.614,0,4.734,2.119,4.734,4.734C280.996,109.078,278.876,111.198,276.262,111.198z"/>
	</g>
	<g>
		<path fill="#1A1A1A" d="M314.604,173.681H114.846c-2.614,0-4.734-2.119-4.734-4.734c0-2.614,2.119-4.734,4.734-4.734h199.759
			c2.614,0,4.734,2.119,4.734,4.734C319.338,171.562,317.219,173.681,314.604,173.681z"/>
	</g>
	<linearGradient id="SVGID_2_" gradientUnits="userSpaceOnUse" x1="449.4944" y1="558.4561" x2="144.2965" y2="253.2582">
		<stop  offset="0" style="stop-color:#4FA0CA;stop-opacity:0"/>
		<stop  offset="0.2558" style="stop-color:#356C88;stop-opacity:0.2558"/>
		<stop  offset="0.5115" style="stop-color:#1E3E4E;stop-opacity:0.5115"/>
		<stop  offset="0.7289" style="stop-color:#0E1C24;stop-opacity:0.7289"/>
		<stop  offset="0.8988" style="stop-color:#04080A;stop-opacity:0.8988"/>
		<stop  offset="1" style="stop-color:#000000"/>
	</linearGradient>
	<path opacity="0.2" fill="url(#SVGID_2_)" d="M501.125,511.347c-33.09,33.76-72.1,61.69-115.36,82.12l-147.05-147.05l10.15-15.75
		l71.47-100.11L501.125,511.347z"/>
	<g>
		<g>
			<g>
				<polygon fill="#D16300" points="256.18,381.883 238.715,446.417 261.019,427.12 270.546,455.032 288.011,390.498 				"/>
			</g>
			<g>
				<polygon fill="#D16300" points="319.843,381.883 337.307,446.417 315.003,427.12 305.476,455.032 288.011,390.498 				"/>
			</g>
		</g>
	</g>
	<g>
		<path fill="#1A1A1A" d="M314.604,216.284H114.846c-2.614,0-4.734-2.119-4.734-4.734c0-2.614,2.119-4.734,4.734-4.734h199.759
			c2.614,0,4.734,2.119,4.734,4.734C319.338,214.165,317.219,216.284,314.604,216.284z"/>
	</g>
	<g>
		<path fill="#1A1A1A" d="M314.604,258.887H114.846c-2.614,0-4.734-2.119-4.734-4.734c0-2.614,2.119-4.734,4.734-4.734h199.759
			c2.614,0,4.734,2.12,4.734,4.734C319.338,256.767,317.219,258.887,314.604,258.887z"/>
	</g>
	<g>
		<circle fill="#FFFFFF" cx="288.721" cy="360.911" r="39.852"/>
	</g>
	<g>
		<g>
			<path fill="#FF8000" d="M288.721,404.539c-24.056,0-43.628-19.571-43.628-43.628s19.571-43.628,43.628-43.628
				s43.628,19.571,43.628,43.628S312.777,404.539,288.721,404.539z M288.721,324.836c-19.892,0-36.076,16.183-36.076,36.076
				c0,19.892,16.183,36.076,36.076,36.076c19.892,0,36.076-16.183,36.076-36.076C324.797,341.019,308.614,324.836,288.721,324.836z"
				/>
		</g>
	</g>
	<g>
		<circle fill="#FF8000" cx="288.721" cy="360.911" r="26.762"/>
	</g>
	<g>
		<path fill="#1A1A1A" d="M188.69,321.844h-73.844c-2.614,0-4.734-2.119-4.734-4.734c0-2.614,2.119-4.734,4.734-4.734h73.844
			c2.614,0,4.734,2.12,4.734,4.734C193.424,319.724,191.304,321.844,188.69,321.844z"/>
	</g>
	<g>
		<g opacity="0.3">
			<path d="M302.238,358.358h-1.092c-0.146-5.523-3.867-9.963-8.423-9.963c-4.561,0-8.282,4.44-8.428,9.963h-1.092
				c-1.037,0-1.883,0.931-1.883,2.064v15.033c0,1.133,0.846,2.064,1.883,2.064h19.036c1.037,0,1.883-0.931,1.883-2.064v-15.033
				C304.121,359.289,303.275,358.358,302.238,358.358z M287.623,358.358c0.131-3.685,2.366-6.63,5.1-6.63
				c2.729,0,4.969,2.945,5.095,6.63H287.623z"/>
		</g>
		<g>
			<path fill="#FFFFFF" d="M298.238,355.358h-1.092c-0.146-5.523-3.867-9.963-8.423-9.963c-4.561,0-8.282,4.44-8.428,9.963h-1.092
				c-1.037,0-1.883,0.931-1.883,2.064v15.033c0,1.133,0.846,2.064,1.883,2.064h19.036c1.037,0,1.883-0.931,1.883-2.064v-15.033
				C300.121,356.289,299.275,355.358,298.238,355.358z M283.623,355.358c0.131-3.685,2.366-6.63,5.1-6.63
				c2.729,0,4.969,2.945,5.095,6.63H283.623z"/>
		</g>
	</g>
</g>
</svg>
