<?xml version="1.0" encoding="utf-8"?>
<!-- Generator: Adobe Illustrator 17.0.0, SVG Export Plug-In . SVG Version: 6.00 Build 0)  -->
<!DOCTYPE svg PUBLIC "-//W3C//DTD SVG 1.1//EN" "http://www.w3.org/Graphics/SVG/1.1/DTD/svg11.dtd">
<svg version="1.1" id="Layer_1" xmlns="http://www.w3.org/2000/svg" xmlns:xlink="http://www.w3.org/1999/xlink" x="0px" y="0px"
	 width="802px" height="802px" viewBox="0 0 802 802" enable-background="new 0 0 802 802" xml:space="preserve">
<path fill="#4FA0CA" d="M802,401c0,6.16-0.14,12.29-0.42,18.38c-4.61,102.19-47.47,194.43-114.59,262.72
	c-33.01,33.57-71.88,61.36-114.95,81.7c-8.91,4.2-18,8.09-27.26,11.65C500.15,792.6,451.68,802,401,802C179.53,802,0,622.47,0,401
	S179.53,0,401,0S802,179.53,802,401z"/>
<path opacity="0.2" d="M801.58,419.38c-7.34,162.82-111.78,300.36-256.8,356.07L401,631.67l13.5-73.66L474.29,464L577,275.14
	l38.72-41.62L801.58,419.38z"/>
<g>
	<path fill="#F2F2F2" d="M401,170.333c55.781,31.726,214.725,63.116,214.725,63.116C615.725,547.729,401,631.667,401,631.667
		s-214.725-83.938-214.725-398.217C186.275,233.449,345.219,202.06,401,170.333z"/>
</g>
<g>
	<path fill="#1A1A1A" d="M462.537,281.531H339.463c-2.614,0-4.734-2.119-4.734-4.734s2.119-4.734,4.734-4.734h123.074
		c2.614,0,4.734,2.119,4.734,4.734S465.151,281.531,462.537,281.531z"/>
</g>
<g>
	<path fill="#1A1A1A" d="M500.879,344.015H301.121c-2.614,0-4.734-2.119-4.734-4.734s2.119-4.734,4.734-4.734h199.759
		c2.614,0,4.734,2.119,4.734,4.734S503.494,344.015,500.879,344.015z"/>
</g>
<g>
	<g opacity="0.3">
		<polygon points="447.455,555.216 429.99,619.751 452.294,600.453 461.821,628.365 479.286,563.831 		"/>
		<polygon points="511.118,555.216 528.582,619.751 506.278,600.453 496.751,628.365 479.286,563.831 		"/>
	</g>
	<g>
		<g>
			<polygon fill="#D16300" points="442.455,552.216 424.99,616.751 447.294,597.453 456.821,625.365 474.286,560.831 			"/>
		</g>
		<g>
			<polygon fill="#D16300" points="506.118,552.216 523.582,616.751 501.278,597.453 491.751,625.365 474.286,560.831 			"/>
		</g>
	</g>
</g>
<g>
	<path fill="#1A1A1A" d="M500.879,386.617H301.121c-2.614,0-4.734-2.119-4.734-4.734s2.119-4.734,4.734-4.734h199.759
		c2.614,0,4.734,2.119,4.734,4.734S503.494,386.617,500.879,386.617z"/>
</g>
<g>
	<path fill="#1A1A1A" d="M500.879,429.22H301.121c-2.614,0-4.734-2.12-4.734-4.734c0-2.614,2.119-4.734,4.734-4.734h199.759
		c2.614,0,4.734,2.12,4.734,4.734C505.613,427.1,503.494,429.22,500.879,429.22z"/>
</g>
<g>
	<circle fill="#FFFFFF" cx="474.996" cy="531.244" r="39.852"/>
</g>
<g>
	<g opacity="0.3">
		<path d="M478.996,577.872c-24.056,0-45.724-21.149-45.724-45.206c0-24.056,21.668-42.05,45.724-42.05
			c24.056,0,43.628,19.571,43.628,43.628C522.624,558.301,503.052,577.872,478.996,577.872z M475,491
			c-26.667-2.333-42.856,15-41.667,44.333c0.806,19.876,25.77,34.987,45.663,34.987c19.892,0,36.076-16.183,36.076-36.076
			C515.072,514.352,494.892,491,475,491z"/>
	</g>
	<g>
		<path fill="#FF8000" d="M474.996,574.872c-24.056,0-43.628-19.571-43.628-43.628c0-24.056,19.571-43.628,43.628-43.628
			c24.056,0,43.628,19.571,43.628,43.628C518.624,555.301,499.052,574.872,474.996,574.872z M474.996,495.169
			c-19.892,0-36.076,16.183-36.076,36.076c0,19.892,16.183,36.076,36.076,36.076c19.892,0,36.076-16.183,36.076-36.076
			C511.072,511.352,494.889,495.169,474.996,495.169z"/>
	</g>
</g>
<g>
	<circle fill="#FF8000" cx="474.996" cy="531.244" r="26.762"/>
</g>
<g>
	<path fill="#1A1A1A" d="M374.965,492.177h-73.844c-2.614,0-4.734-2.12-4.734-4.734c0-2.614,2.119-4.734,4.734-4.734h73.844
		c2.614,0,4.734,2.12,4.734,4.734C379.699,490.058,377.579,492.177,374.965,492.177z"/>
</g>
<g>
	<g opacity="0.3">
		<path d="M488.513,528.691h-1.092c-0.146-5.523-3.867-9.963-8.423-9.963c-4.561,0-8.282,4.44-8.428,9.963h-1.092
			c-1.037,0-1.883,0.931-1.883,2.064v15.033c0,1.133,0.846,2.064,1.883,2.064h19.036c1.037,0,1.883-0.931,1.883-2.064v-15.033
			C490.396,529.622,489.55,528.691,488.513,528.691z M473.898,528.691c0.131-3.685,2.366-6.631,5.1-6.631
			c2.729,0,4.969,2.945,5.095,6.631H473.898z"/>
	</g>
	<g>
		<path fill="#FFFFFF" d="M484.513,525.691h-1.092c-0.146-5.523-3.867-9.963-8.423-9.963c-4.561,0-8.282,4.44-8.428,9.963h-1.092
			c-1.037,0-1.883,0.931-1.883,2.064v15.033c0,1.133,0.846,2.064,1.883,2.064h19.036c1.037,0,1.883-0.931,1.883-2.064v-15.033
			C486.396,526.622,485.55,525.691,484.513,525.691z M469.898,525.691c0.131-3.685,2.366-6.631,5.1-6.631
			c2.729,0,4.969,2.945,5.095,6.631H469.898z"/>
	</g>
</g>
</svg>
